<svg width="134" height="160" viewBox="0 0 134 160" fill="none" xmlns="http://www.w3.org/2000/svg">
<path d="M3.66699 63.3333L20.3337 66.6666L35.3337 58.3333L43.667 63.3333L52.0003 68.3333L67.0003 58.3333L83.667 68.3333L90.3336 63.3333L97.0003 58.3333L113.667 68.3333L127 63.3333V156.667H3.66699V63.3333Z" fill="#ECF8FA"/>
<path d="M9.89871 160C4.68132 160 0.333496 156.634 0.333496 152.492V56.1812C0.333496 55.9223 0.333496 55.4045 0.623351 55.1456C0.913206 54.6278 0.913206 54.3689 1.49292 54.11C1.78277 53.8511 2.36248 53.5922 2.65234 53.3333C2.94219 53.0744 3.5219 53.0744 3.81176 53.0744C4.39147 53.0744 4.68132 53.0744 4.97118 53.3333C5.55089 53.5922 5.84074 53.5922 6.1306 54.11L6.42045 54.3689L11.0581 58.5113L12.5074 57.7346C11.9277 56.1812 11.6378 54.3689 11.0581 52.8155C9.60886 46.343 9.02915 40.6473 9.02915 35.2104C8.73929 34.4337 9.02915 33.657 9.02915 32.8803C9.319 16.0518 15.9857 4.66019 26.1306 2.589C27.0002 2.3301 28.1596 2.3301 29.0291 2.3301C42.9422 2.3301 56.8552 19.1586 62.3625 42.2006C63.232 45.5663 63.8117 48.932 64.1016 52.5566L65.261 53.0744C65.5509 53.0744 66.1306 52.8155 66.4204 52.8155C66.7103 52.8155 66.7103 52.8155 67.0002 52.8155L67.8697 52.2977L77.4349 29.7735C79.7538 24.0777 85.5509 19.9353 92.5074 19.4175L93.0871 18.6408C90.1886 6.99029 93.6668 2.589 96.2755 1.0356C97.7248 0.517799 99.1741 0 100.623 0C102.652 0 104.391 0.776699 106.131 1.8123C109.029 3.8835 111.348 7.24919 112.218 11.6505L113.667 12.1683C117.145 9.83819 120.913 8.54369 124.681 8.54369C124.971 8.54369 125.261 8.54369 125.551 8.54369C129.609 8.80259 132.507 10.8738 133.377 13.9806C133.957 16.5696 133.667 22.0065 122.652 28.9968V30.0324C127.29 34.6926 128.739 40.9062 126.131 46.8608L121.783 56.9579L123.232 57.7346L127.58 54.11C127.87 53.8511 128.449 53.5922 128.739 53.3333C129.319 53.0744 129.609 53.0744 129.899 53.0744C130.478 53.0744 130.768 53.0744 131.348 53.3333C131.928 53.5922 132.218 53.8511 132.507 54.11C132.797 54.3689 133.087 54.8867 133.377 55.1456C133.667 55.6634 133.667 55.9223 133.667 56.1812V152.492C133.667 156.634 129.319 160 124.102 160H9.89871ZM7.29002 65.2427V152.492C7.57987 153.269 8.44944 153.786 9.60886 153.786H123.522C124.681 153.786 125.551 153.269 125.841 152.751V65.2427L124.681 64.7249L116.276 71.7152C115.696 72.233 114.826 72.4919 113.957 72.4919C113.087 72.4919 112.218 72.233 111.638 71.7152L98.8842 60.8414H97.7248L84.9712 71.7152C84.3915 72.233 83.5219 72.4919 82.6523 72.4919C81.7828 72.4919 80.9132 72.233 80.3335 71.7152L67.5799 60.8414H66.4204L53.6668 71.7152C53.0871 72.233 52.2175 72.4919 51.348 72.4919C50.4784 72.4919 49.6088 72.233 49.0291 71.7152L36.2755 60.8414H35.1161L22.3625 71.7152C21.4929 72.4919 20.6233 72.7508 19.4639 72.7508C18.3045 72.7508 17.7248 72.4919 17.1451 71.7152L8.73929 64.7249L7.29002 65.2427ZM35.406 52.8155C36.2755 52.8155 37.1451 53.0744 37.7248 53.5922L50.4784 64.466H51.6378L57.4349 59.5469L57.7248 59.0291C57.7248 53.8511 56.8552 48.6731 55.6958 43.4951C50.4784 21.7476 38.0146 8.54369 29.0291 8.54369C28.4494 8.54369 27.8697 8.54369 27.5799 8.80259C22.6523 9.83819 18.8842 15.0162 17.1451 23.0421C15.9857 30.2913 15.9857 31.3269 15.9857 33.9159V34.6926C15.9857 34.9515 15.9857 34.9515 15.9857 34.9515C15.9857 37.7994 20.3335 58.5113 21.7828 61.877L23.232 62.1359L33.0871 53.5922C33.6668 53.3333 34.5364 52.8155 35.406 52.8155ZM94.5364 25.89C89.8987 25.89 85.5509 28.479 84.1016 32.3625L73.6668 56.9579L73.9567 57.7346L82.0726 64.7249H83.232L95.9857 53.8511C96.5654 53.3333 97.4349 53.0744 98.3045 53.0744C99.1741 53.0744 100.044 53.3333 100.623 53.8511L110.478 62.1359L111.928 61.877L119.464 44.2718C120.623 41.6828 120.333 39.0939 119.174 36.5049C118.015 34.1748 115.696 32.1036 112.797 31.3269L98.5944 26.4078C97.1451 26.1489 95.9857 25.89 94.5364 25.89ZM124.681 14.4984C124.102 14.4984 123.232 14.4984 122.652 14.7573C121.203 15.0162 116.276 16.8285 112.218 23.301L112.507 24.3366L114.826 25.1133H115.696C125.841 19.4175 126.42 15.7929 126.42 15.2751L125.841 14.4984C125.551 14.7573 124.971 14.4984 124.681 14.4984ZM100.044 6.73139C99.7538 6.99029 97.4349 10.0971 100.913 20.4531L101.493 20.712L103.812 21.4887L104.971 20.9709C106.71 13.7217 104.391 9.57929 103.522 8.54369C102.362 6.99029 101.493 6.47249 100.913 6.47249L100.044 6.73139Z" fill="#0A8DD8"/>
</svg>
